/* XPM */
static char * icon_xpm[] = {
"32 32 425 2",
"  	c None",
". 	c #A3A5A5",
"+ 	c #8E8E8E",
"@ 	c #898B8B",
"# 	c #8D8D8C",
"$ 	c #7D7E7E",
"% 	c #868686",
"& 	c #89898A",
"* 	c #8F8F8E",
"= 	c #A7A7A7",
"- 	c #949595",
"; 	c #9B9B9B",
"> 	c #A8A8A8",
", 	c #939494",
"' 	c #DEDEDF",
") 	c #B5B6B6",
"! 	c #A1A2A2",
"~ 	c #D1D3D3",
"{ 	c #DADADB",
"] 	c #CDCECF",
"^ 	c #CCCDCE",
"/ 	c #DDDEDE",
"( 	c #CFD0D1",
"_ 	c #C5C7C7",
": 	c #A2A2A2",
"< 	c #A8A9A9",
"[ 	c #BDBFBE",
"} 	c #F1F2F2",
"| 	c #F6F7F7",
"1 	c #FBFCFC",
"2 	c #F9FAFA",
"3 	c #FAFBFB",
"4 	c #FAFBFC",
"5 	c #FFFFFF",
"6 	c #D4D5D5",
"7 	c #6C6D6D",
"8 	c #E7E8E8",
"9 	c #D0D1D0",
"0 	c #D2D3D3",
"a 	c #B3B3B4",
"b 	c #C9CACB",
"c 	c #F7F8F9",
"d 	c #FDFEFE",
"e 	c #F4F5F6",
"f 	c #8F8F90",
"g 	c #464747",
"h 	c #171818",
"i 	c #AEAFAF",
"j 	c #CACACC",
"k 	c #C1C2C1",
"l 	c #9D9E9E",
"m 	c #9E9F9F",
"n 	c #B3B3B3",
"o 	c #F5F6F6",
"p 	c #8C8D8D",
"q 	c #777777",
"r 	c #707171",
"s 	c #242425",
"t 	c #8C8E8C",
"u 	c #A4A4A3",
"v 	c #8E908F",
"w 	c #AAAAAB",
"x 	c #ABACAD",
"y 	c #F8FAFA",
"z 	c #F2F3F3",
"A 	c #535453",
"B 	c #5F6160",
"C 	c #646465",
"D 	c #333433",
"E 	c #7D7D7F",
"F 	c #6E6F6F",
"G 	c #7F7F7F",
"H 	c #818181",
"I 	c #9E9F9E",
"J 	c #999A9A",
"K 	c #9A9B9B",
"L 	c #ECEDEC",
"M 	c #FEFEFF",
"N 	c #ADAEAF",
"O 	c #7E7F7F",
"P 	c #373838",
"Q 	c #424343",
"R 	c #5E605F",
"S 	c #151616",
"T 	c #414141",
"U 	c #888888",
"V 	c #9E9D9D",
"W 	c #8A8B8A",
"X 	c #858786",
"Y 	c #919190",
"Z 	c #A9AAAA",
"` 	c #F4F5F5",
" .	c #FCFDFE",
"..	c #CCCECE",
"+.	c #6E6E6E",
"@.	c #555555",
"#.	c #3A3B3B",
"$.	c #363737",
"%.	c #414242",
"&.	c #383939",
"*.	c #7F807F",
"=.	c #909090",
"-.	c #979898",
";.	c #818383",
">.	c #787878",
",.	c #8A8A8A",
"'.	c #969797",
").	c #767777",
"!.	c #F7F8F8",
"~.	c #CECFD0",
"{.	c #C3C3C5",
"].	c #969696",
"^.	c #8B8C8C",
"/.	c #808081",
"(.	c #515152",
"_.	c #838484",
":.	c #5E5F5E",
"<.	c #7F7F80",
"[.	c #7A7B7B",
"}.	c #777877",
"|.	c #707071",
"1.	c #989898",
"2.	c #AFAFB0",
"3.	c #A3A3A3",
"4.	c #F6F6F7",
"5.	c #CBCCCC",
"6.	c #858587",
"7.	c #7E7E7D",
"8.	c #9FA0A0",
"9.	c #8E8F8F",
"0.	c #A7A8A8",
"a.	c #9E9E9D",
"b.	c #727272",
"c.	c #7D7D7D",
"d.	c #757675",
"e.	c #929291",
"f.	c #BABBBB",
"g.	c #C2C2C4",
"h.	c #B4B4B5",
"i.	c #C8CACA",
"j.	c #E1E2E2",
"k.	c #F7F9F9",
"l.	c #F9FBFB",
"m.	c #EDEEEE",
"n.	c #939395",
"o.	c #676667",
"p.	c #818281",
"q.	c #8F908F",
"r.	c #9C9D9D",
"s.	c #939393",
"t.	c #797A79",
"u.	c #838382",
"v.	c #7A7979",
"w.	c #666766",
"x.	c #7A7B7A",
"y.	c #818282",
"z.	c #AAACAB",
"A.	c #979797",
"B.	c #BBBCBC",
"C.	c #AEAEAE",
"D.	c #ABABAB",
"E.	c #DCDEDE",
"F.	c #FCFDFD",
"G.	c #B4B5B5",
"H.	c #89898B",
"I.	c #B7B8B8",
"J.	c #E6E7E7",
"K.	c #D0D0D1",
"L.	c #9E9FA0",
"M.	c #999999",
"N.	c #A2A3A4",
"O.	c #8A8B8B",
"P.	c #7C7C7C",
"Q.	c #848585",
"R.	c #BFC0C1",
"S.	c #CDCDCE",
"T.	c #A2A4A3",
"U.	c #A1A2A1",
"V.	c #999A99",
"W.	c #F4F6F6",
"X.	c #F5F6F8",
"Y.	c #EDEDEE",
"Z.	c #F3F4F4",
"`.	c #E9EAEA",
" +	c #D3D4D5",
".+	c #898988",
"++	c #A0A1A1",
"@+	c #989899",
"#+	c #747674",
"$+	c #919191",
"%+	c #7A7C7A",
"&+	c #9A9A9A",
"*+	c #D0D0D2",
"=+	c #DEDFDF",
"-+	c #CBCCCB",
";+	c #C4C4C5",
">+	c #CACBCA",
",+	c #C6C7C7",
"'+	c #CDCFCE",
")+	c #F6F8F8",
"!+	c #F9FAFB",
"~+	c #BFC0C0",
"{+	c #686969",
"]+	c #FBFBFB",
"^+	c #FBFDFD",
"/+	c #8C8D8C",
"(+	c #9F9F9E",
"_+	c #939394",
":+	c #989998",
"<+	c #BBBBBB",
"[+	c #DCDDDE",
"}+	c #D1D1D3",
"|+	c #B4B4B4",
"1+	c #B7B7B8",
"2+	c #A4A4A5",
"3+	c #DBDDDD",
"4+	c #F6F7F8",
"5+	c #FEFFFF",
"6+	c #5D5D5E",
"7+	c #505050",
"8+	c #D7D9D9",
"9+	c #9A9C9B",
"0+	c #858484",
"a+	c #888989",
"b+	c #949493",
"c+	c #C0C0C1",
"d+	c #BCBDBD",
"e+	c #C8C8C9",
"f+	c #BFBFC0",
"g+	c #F7F7FA",
"h+	c #F7F7F9",
"i+	c #F3F3F4",
"j+	c #C8C9C9",
"k+	c #8F9090",
"l+	c #727373",
"m+	c #797979",
"n+	c #C7C7C7",
"o+	c #DCDDDD",
"p+	c #D6D7D9",
"q+	c #DBDDDC",
"r+	c #D8D9D9",
"s+	c #CFCFD0",
"t+	c #A3A3A5",
"u+	c #F0F3F3",
"v+	c #F4F4F5",
"w+	c #919392",
"x+	c #E4E5E7",
"y+	c #FDFEFD",
"z+	c #E7E8E9",
"A+	c #ADAEAD",
"B+	c #F3F3F6",
"C+	c #DBDCDD",
"D+	c #C5C5C5",
"E+	c #919292",
"F+	c #A2A2A3",
"G+	c #A9A9AA",
"H+	c #C2C4C4",
"I+	c #D7D7D9",
"J+	c #D9DADA",
"K+	c #CECFCF",
"L+	c #D2D2D4",
"M+	c #D0D1D1",
"N+	c #CECECF",
"O+	c #A7A7AA",
"P+	c #BABCBC",
"Q+	c #F5F7F7",
"R+	c #FCFEFE",
"S+	c #C5C6C6",
"T+	c #A8A9AA",
"U+	c #B5B5B5",
"V+	c #EBEBED",
"W+	c #E9EAEB",
"X+	c #A9AAA9",
"Y+	c #8B8D8C",
"Z+	c #9C9C9C",
"`+	c #F4F5F4",
" @	c #F0F1F3",
".@	c #CACBCB",
"+@	c #A9A9A9",
"@@	c #979998",
"#@	c #C1C2C2",
"$@	c #BEBFBF",
"%@	c #4D4F4E",
"&@	c #C3C4C4",
"*@	c #F0F1F1",
"=@	c #ABACAC",
"-@	c #ECEDEE",
";@	c #A4A5A5",
">@	c #9E9E9F",
",@	c #BDBEBE",
"'@	c #EAEBEB",
")@	c #808080",
"!@	c #ABAEAE",
"~@	c #C9CACA",
"{@	c #D1D2D2",
"]@	c #C2C3C3",
"^@	c #B9BABB",
"/@	c #686868",
"(@	c #CCCDCD",
"_@	c #D5D5D5",
":@	c #EEF0F1",
"<@	c #D1D4D4",
"[@	c #B3B4B5",
"}@	c #DFE1E1",
"|@	c #E6E7E8",
"1@	c #A6A7A7",
"2@	c #CECED0",
"3@	c #B0B1B2",
"4@	c #D7D7D8",
"5@	c #C8CAC9",
"6@	c #CBCBCC",
"7@	c #ECEDED",
"8@	c #EBECEC",
"9@	c #C1C1C2",
"0@	c #E3E4E4",
"a@	c #E3E5E5",
"b@	c #D7D8D8",
"c@	c #DFE2E2",
"d@	c #EDEEEF",
"e@	c #EDEFEF",
"f@	c #EAEBEC",
"g@	c #D6D7D7",
"h@	c #ABABAC",
"i@	c #ADADAF",
"j@	c #B0B1B1",
"k@	c #B2B2B3",
"l@	c #AFAFB1",
"m@	c #C5C6C5",
"n@	c #C1C3C3",
"o@	c #C3C5C5",
"p@	c #AAABAB",
"q@	c #7B7C7B",
"r@	c #D4D7D7",
"s@	c #F2F2F3",
"t@	c #F0F0F3",
"u@	c #E5E7E7",
"v@	c #F0F1F2",
"w@	c #F6F6F9",
"x@	c #E4E5E6",
"y@	c #F8F9F8",
"z@	c #F5F5F8",
"A@	c #9B9D9B",
"B@	c #ACADAD",
"C@	c #B8B9B9",
"D@	c #C1C1C3",
"E@	c #323434",
"F@	c #535454",
"G@	c #8C8E8E",
"H@	c #EBECEE",
"I@	c #C4C5C5",
"J@	c #EEEFF1",
"K@	c #C7C8C9",
"L@	c #CED0D0",
"M@	c #BEBEBF",
"N@	c #D8DAD9",
"O@	c #CDCECD",
"P@	c #B9B9BB",
"Q@	c #CCCCCD",
"R@	c #959797",
"S@	c #696B6A",
"T@	c #A3A4A4",
"U@	c #B3B4B4",
"V@	c #D4D4D5",
"W@	c #242626",
"X@	c #9F9FA0",
"Y@	c #F2F4F4",
"Z@	c #F2F3F2",
"`@	c #E9ECEC",
" #	c #DFE0E0",
".#	c #DEDFE0",
"+#	c #9B9D9C",
"@#	c #929292",
"##	c #AAAAAA",
"$#	c #828283",
"%#	c #6B6C6C",
"&#	c #99999A",
"*#	c #E7E7E9",
"=#	c #F9F9FB",
"-#	c #F1F2F3",
";#	c #D5D7D7",
">#	c #8D8E8E",
",#	c #ADAEAE",
"'#	c #BBBDBC",
")#	c #C6C6C7",
"!#	c #C2C2C3",
"~#	c #C6C7C6",
"{#	c #B6B8B8",
"]#	c #B2B3B3",
"^#	c #9C9F9D",
"/#	c #6B6C6B",
"(#	c #B8B9B8",
"_#	c #B9B9B9",
":#	c #B2B4B4",
"<#	c #737374",
"[#	c #737375",
"}#	c #737474",
"|#	c #636363",
"1#	c #79797A",
"2#	c #A4A4A4",
"3#	c #A5A6A6",
"4#	c #BABABA",
"5#	c #B9BBBB",
"6#	c #CFCFCF",
"7#	c #868687",
"8#	c #787979",
"9#	c #555656",
"0#	c #8B8B8E",
"a#	c #9C9D9E",
"b#	c #696969",
"c#	c #414243",
"d#	c #656666",
"e#	c #A6A6A6",
"f#	c #7E7F80",
"g#	c #7A7A7A",
"h#	c #636464",
"i#	c #666666",
"j#	c #B4B6B6",
"k#	c #BDBDBE",
"l#	c #A5A5A6",
"m#	c #959696",
"n#	c #8F8F8F",
"o#	c #858585",
"p#	c #A2A3A3",
"q#	c #898A8A",
"r#	c #6A6C6C",
"                                                                ",
"                      . + @ # $ % & * = -                       ",
"                  ; > , ' ) ! ~ { ] ^ / ( _ :                   ",
"                < [ } | 1 2 3 1 1 4 1 5 6 7 8 9 0 a             ",
"              b c d 3 3 3 3 3 3 3 3 e f g h i j k l m           ",
"            n o 3 3 3 3 3 3 3 3 3 5 p q r s t u v i * w         ",
"          x y 3 3 2 3 3 3 3 3 3 z ) A B C D E F G H I J K       ",
"          L 1 3 3 2 3 3 3 3 3 M N O P Q R S T U : V W X Y p     ",
"        Z ` 2 2 y 2 3 3 3 4  ...+.@.#.$.%.&.*.=.-.;.>.,.'.).    ",
"          z 3 3 2 3 3 3 !.~.{.].^./.Q (._.:.<.[.}.|.> 1.= 2.3.  ",
"          !.3 3 y 2 3 4.5.6.7.8.9.0.a.- b.U c.c.d.e.m f.g.h.i.  ",
"      Z j.k.k.3 l.3 m.n.o.p.q.r.s.t.u.v.F w.x.y.z.A.z.! B.C.D.  ",
"      E.F.y l.k.k.1 G.H.I.J.K.p L.M.N.O.P.-.Q.t C.R.S.T.U.V.M.  ",
"      W.X.2 2 k.1 !.Y.F.F.1 1 Z.`. +.+++@+#+$+%+&+*+=+*+-+;+>+,+",
"    '+k.k.)+!+!+} ~+{+0.5 3 3 3 ]+^+( /+(+% K _+:+<+ +[+}+|+1+2+",
"    3+o )+4+k.5+m 6+7+( F.3 3 3 3 1 8+9+0+$+a+b+K c+5.6 d+}+e+f+",
"    8 g+X.2 h+d H $ ,+3 3 3 1 F.1 k.i+j+k+l+-.m+l n+o+p+q+0 r+s+",
"  t+u+v+)+y Z.w+M.x+y+3 3 2 z+A+6 2 B+C+D+A.E+F+G+H+I+J+K+L+M+N+",
"  O+P+W.Q+R+S+T+U+V+3 3 2 W+X+Y+Z+`+ @,+.@+@@@J ~+#@[+M+K+$@S+~+",
"  %@&@| ` *@> =@S+-@2 o j+Z+;@>@,@3 | '@6 )@m $+!@~@{@e+]@^@S.  ",
"  /@4 Z.k.(@a _@:@` <@G.[@}@|@R+5+3 2 j.#@1@; 2@w 3@4@5@6@M+S.  ",
"  ++7@8@9@0@*@a@b@c@r+`. @d@e@l.3 l.| f@g@h@i@].j@k@l@m@b n@o@  ",
"  _.p@k+q@3 r@K+s@t@u@m.v@w@x@y@z@o '@W.> : ;@A@C.h.3.B@C@D@    ",
"  E@F@G@H@I@,+I.=+J@8@K@(@L@e.$@g+5.M@N@O@P@Q@R@S@++T@U@V@      ",
"    W@X@Y@W+Z@`@ #.#6 +#@#'.I.D.K+##,@$@6@,@@@d+$#%#p Z+s+      ",
"      &.&#*#=#-#Q+;#9.Z l@>#,#'#)#!#~#{#]#^#; /#Z+k+p           ",
"          (#_#:#=@<#[#}#|#1#2#3#4#5#,@I@6#7#'.8#t.9#0#          ",
"                    a#b#c#d#O O ,.1+f+o+,+8.9+e#f#              ",
"                        g#h#F i#V.$@j#3#k#l#y.m#                ",
"                              a+n#o#p#q#++                      ",
"                                  r#m+                          ",
"                                                                "};
